<svg version="1" xmlns="http://www.w3.org/2000/svg" width="1417.333" height="1417.333" viewBox="0 0 1063.000000 1063.000000"><path d="M500.9.4c-.2.2-4.9.7-10.4 1.1-5.5.3-11.1.8-12.5 1-1.4.2-5.2.6-8.5 1-3.3.3-7.1.8-8.5 1-1.4.2-6.1.9-10.5 1.5-17.2 2.5-52.1 10.1-67 14.7-42.5 13-74.9 26.5-109.4 45.6C223.7 94.1 178.4 129.9 139 173c-4.7 5.1-9 9.8-9.5 10.4-2.7 2.9-18.8 23-24.2 30.1-24.4 32.5-48 73.6-63.4 110.9-2.8 6.7-5.7 13.4-6.4 15.1-3.3 7.2-14.8 43.4-18.6 58-4.3 17-8.5 36.4-9.4 44.2-.4 2.7-.8 5.5-1.1 6.3-.2.8-.6 3.5-.9 6-.3 2.5-.7 5.4-.9 6.5-.2 1.1-.7 4.9-1.1 8.5-.4 3.6-.9 7.6-1.1 9-2.6 16.2-2.5 91.8.1 106 .1.8.6 5.1 1 9.5s.8 8.2 1 8.5c.1.3.6 3 .9 6.1.4 3.1.8 6.6 1.1 7.7.2 1.1.6 3.6.9 5.6 1.7 10.4 7.9 38.8 10.2 46.5.9 3 1.8 6.4 2 7.5.2 1.2 2.7 9.3 5.5 18.1 12.9 40.3 30.4 78.6 52.1 114.3 6.5 10.6 23.4 36.1 24.7 37.2.3.3 3.9 4.9 8 10.3s7.9 10.4 8.5 11c.6.7 3.3 3.9 6.1 7.2 25.7 30.8 59 62.1 91.5 85.9 4.1 3 9.3 6.9 11.6 8.6 2.3 1.6 4.6 3 5.2 3 .6 0 1.2.4 1.4.8.3.8 8.8 6.4 21.1 14.1 11.2 6.9 30.7 17.5 46 24.9 13.9 6.7 51.2 22.2 53.6 22.2.6 0 1.9.4 2.9 1 4.5 2.5 41.6 13 57.7 16.4 11.8 2.5 12.7 2.7 20.5 4.1 10.9 2 13 2.3 18.5 3 2.8.4 5.7.8 6.5 1 .8.2 4.7.7 8.5 1.1 3.9.3 7.7.8 8.6.9 14.6 2.7 83 2.7 107.4 0 13-1.5 13.3-1.5 23.5-3 1.4-.2 4.5-.7 7-1 9.3-1.3 35-6.7 50-10.6 63-16.3 123.3-44.8 176.5-83.3 99.4-71.9 170.8-175.3 202.5-293 1.7-6.6 3.3-12.6 3.5-13.5.2-.9 1-4.6 1.9-8.4.9-3.7 1.8-8.2 2.1-10 .4-1.7 1-5 1.5-7.2s1.1-5.8 1.4-8c.4-2.3.8-5 1-6.1.2-1.2.7-4.5 1.1-7.4.4-2.9.8-6 1-6.9.8-4.7 1.9-15.3 3.1-30.6 1.6-20.6.9-85.8-1.1-93.5-.2-.8-.6-4.6-1-8.3-.3-3.7-.8-7.6-1-8.6-.2-1-.6-4.2-1-7.1-.4-2.9-.9-6.2-1.1-7.4-.2-1.2-.6-3.5-.9-5.1-.3-1.7-.7-4.1-.9-5.5-5.5-32.3-19.6-79.9-32-108.3-.7-1.8-2.6-6.1-4.1-9.7-5.4-12.7-21.3-43.7-29.5-57.5-7.1-11.8-22.9-36-26.1-39.9-.5-.6-4.1-5.4-8-10.6-7.1-9.3-18.4-23.3-24.4-29.9-12.7-14.2-31.7-33.4-42.7-43.2-3.9-3.5-7.6-6.9-8.2-7.4-2.1-2.1-28.6-23.1-34.8-27.6C832 92.5 799 71 797.5 71c-.2 0-2.8-1.4-5.7-3.1-15.4-9.1-42.8-22.2-64.6-30.8-16.7-6.7-48.5-17.2-59.2-19.6-.8-.2-6.2-1.5-12-2.8-15.9-3.8-20.3-4.7-23.5-5.2-1.7-.2-4.1-.7-5.5-.9-4.5-1-19.5-3.4-25-4.1-3-.4-6.6-.8-8-1-1.4-.2-6-.7-10.3-1-4.3-.4-8.8-.9-10-1.2-2.4-.6-72.3-1.4-72.8-.9z"/></svg>