<svg version="1" xmlns="http://www.w3.org/2000/svg" width="133.333" height="133.333" viewBox="0 0 100.000000 100.000000"><path d="M35.5 23.7c-4.4.8-12.2 2.8-17.4 4.6-9.5 3.2-12.6 5.6-10.4 7.8.9.9 3.5.4 10.6-1.9 5.2-1.7 10.5-3.3 11.8-3.6 1.3-.3 4.7-.9 7.4-1.5 2.8-.5 9.5-.9 15-.9 14.9.1 26.9 4.8 34.7 13.7 2.9 3.2 5.8 3.3 5.8.1 0-4.8-11.1-13.3-22.1-17-8.2-2.7-24.2-3.4-35.4-1.3z"/><path d="M36.2 36.2c-.7.7-1.2 3.9-1.2 7.2 0 17.3 9.4 28.7 21.1 25.6 4.6-1.3 9.9-6.2 10-9.5 0-1.1.2-2.9.4-4 1-5.3-7.3-13.3-13.5-13-6.2.4-9 1.6-9 4 0 2.8 1.6 3.5 4.9 2.3 6.9-2.5 13.8 3.6 11.2 10-.7 1.7-2.5 3.6-4.2 4.2-8.4 3.5-15.1-5.5-15.3-20.8-.1-5.7-2.1-8.3-4.4-6z"/><path d="M15.6 47.6c-3.5 3.4 5 18.6 13.3 23.8 6 3.7 11.6 5.5 19.3 6.1 8.1.7 10.4-.2 9.3-3.4-.5-1.8-1.5-2.1-5.8-2.2-2.9 0-6.5-.3-8.2-.5-4.4-.7-12.7-5-15.6-8l-2.4-2.6 4.3-3.7c3-2.6 4.1-4.2 3.6-5.4-.9-2.4-3.2-2.1-7 .8-1.8 1.4-3.5 2.5-3.8 2.5-.3 0-1.1-1.8-1.7-3.9-1.3-4.5-3.2-5.7-5.3-3.5zm51.8-.1c-.8 2 .2 3.2 4.9 6.2 4.1 2.5 7.7 6 7.7 7.2 0 1.5-9.8 8-13.8 9.2-5.3 1.5-6.9 3.3-5.2 5.4 1.7 2 5.7 1.2 12.5-2.4 5-2.7 13.5-10.5 13.5-12.5 0-1.9-5.3-7.3-10.9-11-5.7-3.9-7.9-4.4-8.7-2.1z"/></svg>